<svg xmlns="http://www.w3.org/2000/svg" xmlns:xlink="http://www.w3.org/1999/xlink" version="1.1" x="0px" y="0px" viewBox="0 0 24 24" xml:space="preserve">
  <title>Airy Cloud</title>
  <defs>
    <linearGradient id="gradient" x1="0%" y1="0%" x2="0%" y2="100%">
      <stop offset="0%" style="stop-color:#8A2BE2;stop-opacity:1" />   <!-- 紫色 -->
      <stop offset="50%" style="stop-color:#1E90FF;stop-opacity:1" />  <!-- 蓝色 -->
      <stop offset="100%" style="stop-color:#00FF7F;stop-opacity:1" />  <!-- 绿色 -->
    </linearGradient>
  </defs>
  <g fill="url(#gradient)">
    <path d="M22.525,8.72c-0.549-0.558-1.23-0.962-1.989-1.18c-0.001-0.055-0.003-0.108-0.006-0.16c0-2.272-2.217-4.055-4.619-3.172   c-1.327-2.728-4.569-4.017-7.43-2.878C6.255,2.221,4.811,4.344,4.8,6.74c0,0.199,0.009,0.389,0.029,0.575c0,0,0,0,0,0   c-1.259,0-2.456,0.497-3.337,1.397c-1.706,1.652-1.855,4.381-0.34,6.212c0.004,0.005,0.01,0.007,0.014,0.011   c0.02,0.022,0.044,0.038,0.068,0.055c0.018,0.013,0.035,0.028,0.055,0.037c0.024,0.012,0.051,0.016,0.078,0.023   c0.024,0.006,0.047,0.013,0.072,0.015c0.007,0,0.013,0.004,0.021,0.004h6.9c0.791,0,1.534-0.309,2.093-0.867   c1.143-1.144,1.139-3.007-0.01-4.156c-0.156-0.156-0.409-0.156-0.565,0s-0.156,0.409,0,0.565c0.836,0.836,0.841,2.193,0.009,3.025   c-0.407,0.407-0.95,0.632-1.527,0.632H1.67c-1.132-1.508-0.986-3.66,0.386-4.99c0.823-0.842,1.967-1.257,3.151-1.141   c0.973,0.121,1.856,0.6,2.488,1.349C7.773,9.582,7.886,9.63,8,9.63c0.091,0,0.183-0.031,0.258-0.094   c0.169-0.143,0.19-0.395,0.048-0.564C7.625,8.164,6.695,7.635,5.668,7.424C5.634,7.204,5.6,6.985,5.6,6.742   c0.009-2.067,1.257-3.9,3.178-4.67c2.57-1.025,5.494,0.228,6.544,2.784c0.003,0.01,0.002,0.021,0.006,0.031   c0.234,0.592,0.353,1.216,0.352,1.853c0,0.221,0.179,0.4,0.399,0.4c0.001,0,0.001,0,0.001,0c0.221,0,0.399-0.179,0.4-0.399   c0.001-0.609-0.116-1.201-0.301-1.777c1.778-0.666,3.551,0.664,3.552,2.44c0.009,0.144,0.009,0.278,0,0.421   c-0.012,0.198,0.122,0.375,0.316,0.416c0.733,0.156,1.393,0.515,1.91,1.042c0.726,0.726,1.124,1.69,1.123,2.716   c-0.001,1.028-0.403,1.994-1.135,2.72c-0.602,0.61-1.402,1.006-2.205,1.111h-3.127c0.587-0.542,0.961-1.312,0.957-2.172   c-0.004-0.788-0.313-1.527-0.873-2.083c-0.557-0.552-1.293-0.855-2.075-0.855c-0.004,0-0.009,0-0.014,0   c-0.787,0.003-1.527,0.313-2.082,0.873c-0.555,0.56-0.859,1.301-0.856,2.089c0.001,0.22,0.18,0.398,0.4,0.398   c0.001,0,0.001,0,0.002,0c0.221-0.001,0.399-0.181,0.398-0.402c-0.003-0.573,0.219-1.114,0.623-1.521   c0.405-0.408,0.944-0.634,1.519-0.636c0.53-0.008,1.114,0.219,1.521,0.624c0.408,0.404,0.634,0.944,0.636,1.519   c0.005,1.185-0.955,2.152-2.159,2.157H0.64c-0.221,0-0.4,0.18-0.4,0.4s0.179,0.4,0.4,0.4h4.117   c0.018,0.003,0.034,0.011,0.053,0.011H19.27l0.521-0.004c1.029-0.132,1.997-0.609,2.722-1.344c0.88-0.875,1.366-2.041,1.367-3.283   C23.882,10.76,23.399,9.594,22.525,8.72z"></path>
    <path d="M8.36,17.189H0.64c-0.221,0-0.4,0.18-0.4,0.4s0.179,0.4,0.4,0.4h7.718c0.572,0.002,1.108,0.227,1.511,0.633   c0.402,0.405,0.623,0.943,0.621,1.515c-0.005,1.178-0.964,2.132-2.14,2.132c-0.003,0-0.006,0-0.009,0   c-1.175-0.005-2.131-0.965-2.131-2.14V20c0-0.221-0.179-0.4-0.4-0.4s-0.4,0.18-0.4,0.4v0.13c0,1.614,1.313,2.934,2.928,2.94   c0.004,0,0.008,0,0.012,0c1.615,0,2.932-1.312,2.939-2.929c0.003-0.785-0.299-1.524-0.853-2.082S9.147,17.193,8.36,17.189z"></path>
    <path d="M15.73,17.279h-4.3c-0.221,0-0.4,0.18-0.4,0.4s0.179,0.4,0.4,0.4h4.3c0.584,0,1.06,0.476,1.06,1.06s-0.476,1.06-1.067,1.06   c-0.264,0.038-0.527-0.088-0.732-0.263c-0.168-0.145-0.42-0.125-0.563,0.044c-0.144,0.168-0.124,0.42,0.044,0.563   C14.814,20.839,15.251,21,15.696,21c0.011,0,0.022,0,0.034,0c1.025,0,1.86-0.835,1.86-1.86S16.756,17.279,15.73,17.279z"></path>
  </g>
</svg>